{
    "asset" : {
        "generator" : "Khronos glTF Blender I/O v1.3.48",
        "version" : "2.0"
    },
    "scene" : 0,
    "scenes" : [
        {
            "name" : "Scene",
            "nodes" : [
                0,
                1,
                2,
                3,
                4
            ]
        }
    ],
    "nodes" : [
        {
            "name" : "Kohlenstoff",
            "scale" : [
                0.26670992374420166,
                0.26670992374420166,
                0.26670992374420166
            ],
            "translation" : [
                -0.22532524168491364,
                -0.1901470124721527,
                -0.2725289762020111
            ]
        },
        {
            "name" : "Wasserstoff",
            "scale" : [
                0.26670992374420166,
                0.26670992374420166,
                0.26670992374420166
            ],
            "translation" : [
                1.4036004543304443,
                2.096099853515625,
                0.9941365718841553
            ]
        },
        {
            "mesh" : 0,
            "name" : "Serotonin",
            "rotation" : [
                -0.7662389874458313,
                0.26567554473876953,
                -0.18379734456539154,
                0.555439293384552
            ],
            "scale" : [
                1,
                1,
                0.351529985666275
            ],
            "translation" : [
                -0.28525999188423157,
                -0.5768600106239319,
                -0.10497000068426132
            ]
        },
        {
            "name" : "Sauerstoff",
            "scale" : [
                0.26670992374420166,
                0.26670992374420166,
                0.26670992374420166
            ],
            "translation" : [
                -2.6040446758270264,
                1.6666032075881958,
                -2.3256332874298096
            ]
        },
        {
            "name" : "Stickstoff",
            "scale" : [
                0.26670992374420166,
                0.26670992374420166,
                0.26670992374420166
            ],
            "translation" : [
                -0.17743627727031708,
                -2.140225410461426,
                0.9481083750724792
            ]
        }
    ],
    "materials" : [
        {
            "doubleSided" : true,
            "emissiveFactor" : [
                0,
                0,
                0
            ],
            "name" : "c-bindung",
            "pbrMetallicRoughness" : {
                "baseColorFactor" : [
                    0.8688856959342957,
                    0.8688856959342957,
                    0.8688856959342957,
                    1
                ],
                "metallicFactor" : 0,
                "roughnessFactor" : 0.1666666567325592
            }
        },
        {
            "doubleSided" : true,
            "emissiveFactor" : [
                0,
                0,
                0
            ],
            "name" : "h-bindung",
            "pbrMetallicRoughness" : {
                "baseColorFactor" : [
                    0.2019011378288269,
                    0.2019011378288269,
                    0.2019011378288269,
                    1
                ],
                "metallicFactor" : 0,
                "roughnessFactor" : 0.1595744788646698
            }
        },
        {
            "doubleSided" : true,
            "emissiveFactor" : [
                0,
                0,
                0
            ],
            "name" : "kohlenstoff",
            "pbrMetallicRoughness" : {
                "baseColorFactor" : [
                    0.006370264571160078,
                    0.006370264571160078,
                    0.006370264571160078,
                    1
                ],
                "metallicFactor" : 0,
                "roughnessFactor" : 0.1382978856563568
            }
        },
        {
            "doubleSided" : true,
            "emissiveFactor" : [
                0,
                0,
                0
            ],
            "name" : "o2",
            "pbrMetallicRoughness" : {
                "baseColorFactor" : [
                    0.8000000715255737,
                    0.007606607861816883,
                    0.015197484754025936,
                    1
                ],
                "metallicFactor" : 0,
                "roughnessFactor" : 0.20921987295150757
            }
        },
        {
            "doubleSided" : true,
            "emissiveFactor" : [
                0,
                0,
                0
            ],
            "name" : "stickstoff",
            "pbrMetallicRoughness" : {
                "baseColorFactor" : [
                    0.004417486023157835,
                    0.026665043085813522,
                    0.8000000715255737,
                    1
                ],
                "metallicFactor" : 0,
                "roughnessFactor" : 0.1879432499408722
            }
        }
    ],
    "meshes" : [
        {
            "name" : "Shape_Cylinder.058",
            "primitives" : [
                {
                    "attributes" : {
                        "POSITION" : 0,
                        "NORMAL" : 1,
                        "TEXCOORD_0" : 2
                    },
                    "indices" : 3,
                    "material" : 0
                },
                {
                    "attributes" : {
                        "POSITION" : 4,
                        "NORMAL" : 5,
                        "TEXCOORD_0" : 6
                    },
                    "indices" : 7,
                    "material" : 1
                },
                {
                    "attributes" : {
                        "POSITION" : 8,
                        "NORMAL" : 9,
                        "TEXCOORD_0" : 10
                    },
                    "indices" : 11,
                    "material" : 2
                },
                {
                    "attributes" : {
                        "POSITION" : 12,
                        "NORMAL" : 13,
                        "TEXCOORD_0" : 14
                    },
                    "indices" : 15,
                    "material" : 3
                },
                {
                    "attributes" : {
                        "POSITION" : 16,
                        "NORMAL" : 17,
                        "TEXCOORD_0" : 18
                    },
                    "indices" : 19,
                    "material" : 4
                }
            ]
        }
    ],
    "accessors" : [
        {
            "bufferView" : 0,
            "componentType" : 5126,
            "count" : 2897,
            "max" : [
                2.280399799346924,
                2.5698461532592773,
                12.768449783325195
            ],
            "min" : [
                -3.2384727001190186,
                -2.9869766235351562,
                -6.761436462402344
            ],
            "type" : "VEC3"
        },
        {
            "bufferView" : 1,
            "componentType" : 5126,
            "count" : 2897,
            "type" : "VEC3"
        },
        {
            "bufferView" : 2,
            "componentType" : 5126,
            "count" : 2897,
            "type" : "VEC2"
        },
        {
            "bufferView" : 3,
            "componentType" : 5123,
            "count" : 7968,
            "type" : "SCALAR"
        },
        {
            "bufferView" : 4,
            "componentType" : 5126,
            "count" : 4124,
            "max" : [
                2.9534082412719727,
                3.29034423828125,
                14.264179229736328
            ],
            "min" : [
                -3.3075127601623535,
                -3.6280834674835205,
                -9.022149085998535
            ],
            "type" : "VEC3"
        },
        {
            "bufferView" : 5,
            "componentType" : 5126,
            "count" : 4124,
            "type" : "VEC3"
        },
        {
            "bufferView" : 6,
            "componentType" : 5126,
            "count" : 4124,
            "type" : "VEC2"
        },
        {
            "bufferView" : 7,
            "componentType" : 5123,
            "count" : 19146,
            "type" : "SCALAR"
        },
        {
            "bufferView" : 8,
            "componentType" : 5126,
            "count" : 2870,
            "max" : [
                2.234161138534546,
                1.9188506603240967,
                9.20291805267334
            ],
            "min" : [
                -2.6871237754821777,
                -2.72531795501709,
                -6.495469093322754
            ],
            "type" : "VEC3"
        },
        {
            "bufferView" : 9,
            "componentType" : 5126,
            "count" : 2870,
            "type" : "VEC3"
        },
        {
            "bufferView" : 10,
            "componentType" : 5126,
            "count" : 2870,
            "type" : "VEC2"
        },
        {
            "bufferView" : 11,
            "componentType" : 5123,
            "count" : 14400,
            "type" : "SCALAR"
        },
        {
            "bufferView" : 12,
            "componentType" : 5126,
            "count" : 287,
            "max" : [
                -2.6540541648864746,
                2.4943759441375732,
                4.298500061035156
            ],
            "min" : [
                -3.626828193664551,
                1.5318949222564697,
                1.5348607301712036
            ],
            "type" : "VEC3"
        },
        {
            "bufferView" : 13,
            "componentType" : 5126,
            "count" : 287,
            "type" : "VEC3"
        },
        {
            "bufferView" : 14,
            "componentType" : 5126,
            "count" : 287,
            "type" : "VEC2"
        },
        {
            "bufferView" : 15,
            "componentType" : 5123,
            "count" : 1440,
            "type" : "SCALAR"
        },
        {
            "bufferView" : 16,
            "componentType" : 5126,
            "count" : 574,
            "max" : [
                1.7243218421936035,
                -0.12181258201599121,
                12.982852935791016
            ],
            "min" : [
                0.499764084815979,
                -2.9522626399993896,
                -5.563909530639648
            ],
            "type" : "VEC3"
        },
        {
            "bufferView" : 17,
            "componentType" : 5126,
            "count" : 574,
            "type" : "VEC3"
        },
        {
            "bufferView" : 18,
            "componentType" : 5126,
            "count" : 574,
            "type" : "VEC2"
        },
        {
            "bufferView" : 19,
            "componentType" : 5123,
            "count" : 2880,
            "type" : "SCALAR"
        }
    ],
    "bufferViews" : [
        {
            "buffer" : 0,
            "byteLength" : 34764,
            "byteOffset" : 0
        },
        {
            "buffer" : 0,
            "byteLength" : 34764,
            "byteOffset" : 34764
        },
        {
            "buffer" : 0,
            "byteLength" : 23176,
            "byteOffset" : 69528
        },
        {
            "buffer" : 0,
            "byteLength" : 15936,
            "byteOffset" : 92704
        },
        {
            "buffer" : 0,
            "byteLength" : 49488,
            "byteOffset" : 108640
        },
        {
            "buffer" : 0,
            "byteLength" : 49488,
            "byteOffset" : 158128
        },
        {
            "buffer" : 0,
            "byteLength" : 32992,
            "byteOffset" : 207616
        },
        {
            "buffer" : 0,
            "byteLength" : 38292,
            "byteOffset" : 240608
        },
        {
            "buffer" : 0,
            "byteLength" : 34440,
            "byteOffset" : 278900
        },
        {
            "buffer" : 0,
            "byteLength" : 34440,
            "byteOffset" : 313340
        },
        {
            "buffer" : 0,
            "byteLength" : 22960,
            "byteOffset" : 347780
        },
        {
            "buffer" : 0,
            "byteLength" : 28800,
            "byteOffset" : 370740
        },
        {
            "buffer" : 0,
            "byteLength" : 3444,
            "byteOffset" : 399540
        },
        {
            "buffer" : 0,
            "byteLength" : 3444,
            "byteOffset" : 402984
        },
        {
            "buffer" : 0,
            "byteLength" : 2296,
            "byteOffset" : 406428
        },
        {
            "buffer" : 0,
            "byteLength" : 2880,
            "byteOffset" : 408724
        },
        {
            "buffer" : 0,
            "byteLength" : 6888,
            "byteOffset" : 411604
        },
        {
            "buffer" : 0,
            "byteLength" : 6888,
            "byteOffset" : 418492
        },
        {
            "buffer" : 0,
            "byteLength" : 4592,
            "byteOffset" : 425380
        },
        {
            "buffer" : 0,
            "byteLength" : 5760,
            "byteOffset" : 429972
        }
    ],
    "buffers" : [
        {
            "byteLength" : 435732,
            "uri" : "data:application/octet-stream;base64,"
        }
    ]
}
