{
    "asset" : {
        "generator" : "Khronos glTF Blender I/O v1.8.2",
        "version" : "2.0"
    },
    "scene" : 0,
    "scenes" : [
        {
            "name" : "Scene",
            "nodes" : [
                0,
                1,
                2,
                3,
                4,
                5,
                6
            ]
        }
    ],
    "nodes" : [
        {
            "mesh" : 0,
            "name" : "Raum",
            "translation" : [
                -3.2850286960601807,
                2.33659029006958,
                -1.5094993114471436
            ]
        },
        {
            "mesh" : 1,
            "name" : "Raum.001",
            "translation" : [
                -3.2850286960601807,
                2.33659029006958,
                -1.5094993114471436
            ]
        },
        {
            "mesh" : 2,
            "name" : "Raum.002",
            "translation" : [
                -3.2850286960601807,
                2.33659029006958,
                -1.5094993114471436
            ]
        },
        {
            "mesh" : 3,
            "name" : "Circle",
            "scale" : [
                0.7241174578666687,
                0.7241174578666687,
                0.7241174578666687
            ],
            "translation" : [
                1.11258864402771,
                2.397399663925171,
                -1.9224088191986084
            ]
        },
        {
            "mesh" : 4,
            "name" : "Circle.001",
            "scale" : [
                0.5599743127822876,
                0.5599743127822876,
                0.5599743127822876
            ],
            "translation" : [
                -0.7805178165435791,
                2.7195677757263184,
                -1.1253113746643066
            ]
        },
        {
            "mesh" : 5,
            "name" : "Circle.002",
            "scale" : [
                0.45609793066978455,
                0.45609793066978455,
                0.45609793066978455
            ],
            "translation" : [
                -2.0646004676818848,
                2.9666855335235596,
                -2.3253326416015625
            ]
        },
        {
            "mesh" : 6,
            "name" : "Circle.003",
            "scale" : [
                0.6230139136314392,
                0.6230139136314392,
                0.6230139136314392
            ],
            "translation" : [
                -2.7867071628570557,
                1.8993734121322632,
                -0.8030649423599243
            ]
        }
    ],
    "materials" : [
        {
            "doubleSided" : true,
            "name" : "Material",
            "pbrMetallicRoughness" : {
                "baseColorFactor" : [
                    0.800000011920929,
                    0.800000011920929,
                    0.800000011920929,
                    1
                ],
                "metallicFactor" : 0,
                "roughnessFactor" : 0.4000000059604645
            }
        },
        {
            "doubleSided" : true,
            "name" : "WoodFlooringMelamineBruciato001_1K",
            "pbrMetallicRoughness" : {
                "baseColorFactor" : [
                    0.0005610763910226524,
                    0.0005610763910226524,
                    0.0005610763910226524,
                    1
                ],
                "metallicFactor" : 0.22727273404598236,
                "roughnessFactor" : 0.5
            }
        },
        {
            "doubleSided" : true,
            "name" : "Material.007",
            "pbrMetallicRoughness" : {
                "baseColorFactor" : [
                    0.800000011920929,
                    0.800000011920929,
                    0.800000011920929,
                    1
                ],
                "metallicFactor" : 0,
                "roughnessFactor" : 0.4000000059604645
            }
        },
        {
            "doubleSided" : true,
            "name" : "Material.002",
            "pbrMetallicRoughness" : {
                "baseColorFactor" : [
                    0.009130432270467281,
                    0.009130432270467281,
                    0.009130432270467281,
                    1
                ],
                "roughnessFactor" : 0.6363636255264282
            }
        },
        {
            "doubleSided" : true,
            "emissiveFactor" : [
                1,
                1,
                1
            ],
            "name" : "Material.001",
            "pbrMetallicRoughness" : {
                "baseColorFactor" : [
                    0.800000011920929,
                    0.800000011920929,
                    0.800000011920929,
                    1
                ],
                "metallicFactor" : 0,
                "roughnessFactor" : 0.5
            }
        }
    ],
    "meshes" : [
        {
            "name" : "Cube",
            "primitives" : [
                {
                    "attributes" : {
                        "POSITION" : 0,
                        "NORMAL" : 1,
                        "TEXCOORD_0" : 2
                    },
                    "indices" : 3,
                    "material" : 0
                },
                {
                    "attributes" : {
                        "POSITION" : 4,
                        "NORMAL" : 5,
                        "TEXCOORD_0" : 6
                    },
                    "indices" : 7,
                    "material" : 1
                }
            ]
        },
        {
            "name" : "Cube.013",
            "primitives" : [
                {
                    "attributes" : {
                        "POSITION" : 8,
                        "NORMAL" : 9,
                        "TEXCOORD_0" : 10
                    },
                    "indices" : 11,
                    "material" : 2
                }
            ]
        },
        {
            "name" : "Cube.015",
            "primitives" : [
                {
                    "attributes" : {
                        "POSITION" : 12,
                        "NORMAL" : 13,
                        "TEXCOORD_0" : 14
                    },
                    "indices" : 15,
                    "material" : 0
                }
            ]
        },
        {
            "name" : "Circle",
            "primitives" : [
                {
                    "attributes" : {
                        "POSITION" : 16,
                        "NORMAL" : 17,
                        "TEXCOORD_0" : 18
                    },
                    "indices" : 19,
                    "material" : 3
                },
                {
                    "attributes" : {
                        "POSITION" : 20,
                        "NORMAL" : 21,
                        "TEXCOORD_0" : 22
                    },
                    "indices" : 23,
                    "material" : 4
                }
            ]
        },
        {
            "name" : "Circle.001",
            "primitives" : [
                {
                    "attributes" : {
                        "POSITION" : 24,
                        "NORMAL" : 25,
                        "TEXCOORD_0" : 26
                    },
                    "indices" : 19,
                    "material" : 3
                },
                {
                    "attributes" : {
                        "POSITION" : 27,
                        "NORMAL" : 28,
                        "TEXCOORD_0" : 29
                    },
                    "indices" : 23,
                    "material" : 4
                }
            ]
        },
        {
            "name" : "Circle.002",
            "primitives" : [
                {
                    "attributes" : {
                        "POSITION" : 30,
                        "NORMAL" : 31,
                        "TEXCOORD_0" : 32
                    },
                    "indices" : 19,
                    "material" : 3
                },
                {
                    "attributes" : {
                        "POSITION" : 33,
                        "NORMAL" : 34,
                        "TEXCOORD_0" : 35
                    },
                    "indices" : 23,
                    "material" : 4
                }
            ]
        },
        {
            "name" : "Circle.003",
            "primitives" : [
                {
                    "attributes" : {
                        "POSITION" : 36,
                        "NORMAL" : 37,
                        "TEXCOORD_0" : 38
                    },
                    "indices" : 19,
                    "material" : 3
                },
                {
                    "attributes" : {
                        "POSITION" : 39,
                        "NORMAL" : 40,
                        "TEXCOORD_0" : 41
                    },
                    "indices" : 23,
                    "material" : 4
                }
            ]
        }
    ],
    "accessors" : [
        {
            "bufferView" : 0,
            "componentType" : 5126,
            "count" : 86,
            "max" : [
                -1.7569808959960938,
                3.8188419342041016,
                4.646597385406494
            ],
            "min" : [
                -14.434564590454102,
                -4.026394844055176,
                -5.392120838165283
            ],
            "type" : "VEC3"
        },
        {
            "bufferView" : 1,
            "componentType" : 5126,
            "count" : 86,
            "type" : "VEC3"
        },
        {
            "bufferView" : 2,
            "componentType" : 5126,
            "count" : 86,
            "type" : "VEC2"
        },
        {
            "bufferView" : 3,
            "componentType" : 5123,
            "count" : 132,
            "type" : "SCALAR"
        },
        {
            "bufferView" : 4,
            "componentType" : 5126,
            "count" : 12,
            "max" : [
                7.766883850097656,
                -4.026394844055176,
                4.8813276290893555
            ],
            "min" : [
                -1.7569811344146729,
                -4.026394844055176,
                -5.383502006530762
            ],
            "type" : "VEC3"
        },
        {
            "bufferView" : 5,
            "componentType" : 5126,
            "count" : 12,
            "type" : "VEC3"
        },
        {
            "bufferView" : 6,
            "componentType" : 5126,
            "count" : 12,
            "type" : "VEC2"
        },
        {
            "bufferView" : 7,
            "componentType" : 5123,
            "count" : 18,
            "type" : "SCALAR"
        },
        {
            "bufferView" : 8,
            "componentType" : 5126,
            "count" : 8,
            "max" : [
                7.766883850097656,
                3.8188419342041016,
                4.8813276290893555
            ],
            "min" : [
                -1.7569811344146729,
                -4.026394844055176,
                -5.383502006530762
            ],
            "type" : "VEC3"
        },
        {
            "bufferView" : 9,
            "componentType" : 5126,
            "count" : 8,
            "type" : "VEC3"
        },
        {
            "bufferView" : 10,
            "componentType" : 5126,
            "count" : 8,
            "type" : "VEC2"
        },
        {
            "bufferView" : 11,
            "componentType" : 5123,
            "count" : 12,
            "type" : "SCALAR"
        },
        {
            "bufferView" : 12,
            "componentType" : 5126,
            "count" : 5,
            "max" : [
                7.766883850097656,
                3.8188419342041016,
                4.8813276290893555
            ],
            "min" : [
                7.751450538635254,
                -4.026394844055176,
                -5.383502006530762
            ],
            "type" : "VEC3"
        },
        {
            "bufferView" : 13,
            "componentType" : 5126,
            "count" : 5,
            "type" : "VEC3"
        },
        {
            "bufferView" : 14,
            "componentType" : 5126,
            "count" : 5,
            "type" : "VEC2"
        },
        {
            "bufferView" : 15,
            "componentType" : 5123,
            "count" : 9,
            "type" : "SCALAR"
        },
        {
            "bufferView" : 16,
            "componentType" : 5126,
            "count" : 320,
            "max" : [
                1.09592604637146,
                0.08319830894470215,
                1.09592604637146
            ],
            "min" : [
                -1.09592604637146,
                0,
                -1.09592604637146
            ],
            "type" : "VEC3"
        },
        {
            "bufferView" : 17,
            "componentType" : 5126,
            "count" : 320,
            "type" : "VEC3"
        },
        {
            "bufferView" : 18,
            "componentType" : 5126,
            "count" : 320,
            "type" : "VEC2"
        },
        {
            "bufferView" : 19,
            "componentType" : 5123,
            "count" : 960,
            "type" : "SCALAR"
        },
        {
            "bufferView" : 20,
            "componentType" : 5126,
            "count" : 192,
            "max" : [
                1.084592342376709,
                0.011774063110351562,
                1.084592342376709
            ],
            "min" : [
                -1.084592342376709,
                0,
                -1.084592342376709
            ],
            "type" : "VEC3"
        },
        {
            "bufferView" : 21,
            "componentType" : 5126,
            "count" : 192,
            "type" : "VEC3"
        },
        {
            "bufferView" : 22,
            "componentType" : 5126,
            "count" : 192,
            "type" : "VEC2"
        },
        {
            "bufferView" : 23,
            "componentType" : 5123,
            "count" : 576,
            "type" : "SCALAR"
        },
        {
            "bufferView" : 24,
            "componentType" : 5126,
            "count" : 320,
            "max" : [
                1.09592604637146,
                0.08319830894470215,
                1.09592604637146
            ],
            "min" : [
                -1.09592604637146,
                0,
                -1.09592604637146
            ],
            "type" : "VEC3"
        },
        {
            "bufferView" : 25,
            "componentType" : 5126,
            "count" : 320,
            "type" : "VEC3"
        },
        {
            "bufferView" : 26,
            "componentType" : 5126,
            "count" : 320,
            "type" : "VEC2"
        },
        {
            "bufferView" : 27,
            "componentType" : 5126,
            "count" : 192,
            "max" : [
                1.084592342376709,
                0.011774063110351562,
                1.084592342376709
            ],
            "min" : [
                -1.084592342376709,
                0,
                -1.084592342376709
            ],
            "type" : "VEC3"
        },
        {
            "bufferView" : 28,
            "componentType" : 5126,
            "count" : 192,
            "type" : "VEC3"
        },
        {
            "bufferView" : 29,
            "componentType" : 5126,
            "count" : 192,
            "type" : "VEC2"
        },
        {
            "bufferView" : 30,
            "componentType" : 5126,
            "count" : 320,
            "max" : [
                1.09592604637146,
                0.08319830894470215,
                1.09592604637146
            ],
            "min" : [
                -1.09592604637146,
                0,
                -1.09592604637146
            ],
            "type" : "VEC3"
        },
        {
            "bufferView" : 31,
            "componentType" : 5126,
            "count" : 320,
            "type" : "VEC3"
        },
        {
            "bufferView" : 32,
            "componentType" : 5126,
            "count" : 320,
            "type" : "VEC2"
        },
        {
            "bufferView" : 33,
            "componentType" : 5126,
            "count" : 192,
            "max" : [
                1.084592342376709,
                0.011774063110351562,
                1.084592342376709
            ],
            "min" : [
                -1.084592342376709,
                0,
                -1.084592342376709
            ],
            "type" : "VEC3"
        },
        {
            "bufferView" : 34,
            "componentType" : 5126,
            "count" : 192,
            "type" : "VEC3"
        },
        {
            "bufferView" : 35,
            "componentType" : 5126,
            "count" : 192,
            "type" : "VEC2"
        },
        {
            "bufferView" : 36,
            "componentType" : 5126,
            "count" : 320,
            "max" : [
                1.09592604637146,
                0.08319830894470215,
                1.09592604637146
            ],
            "min" : [
                -1.09592604637146,
                0,
                -1.09592604637146
            ],
            "type" : "VEC3"
        },
        {
            "bufferView" : 37,
            "componentType" : 5126,
            "count" : 320,
            "type" : "VEC3"
        },
        {
            "bufferView" : 38,
            "componentType" : 5126,
            "count" : 320,
            "type" : "VEC2"
        },
        {
            "bufferView" : 39,
            "componentType" : 5126,
            "count" : 192,
            "max" : [
                1.084592342376709,
                0.011774063110351562,
                1.084592342376709
            ],
            "min" : [
                -1.084592342376709,
                0,
                -1.084592342376709
            ],
            "type" : "VEC3"
        },
        {
            "bufferView" : 40,
            "componentType" : 5126,
            "count" : 192,
            "type" : "VEC3"
        },
        {
            "bufferView" : 41,
            "componentType" : 5126,
            "count" : 192,
            "type" : "VEC2"
        }
    ],
    "bufferViews" : [
        {
            "buffer" : 0,
            "byteLength" : 1032,
            "byteOffset" : 0
        },
        {
            "buffer" : 0,
            "byteLength" : 1032,
            "byteOffset" : 1032
        },
        {
            "buffer" : 0,
            "byteLength" : 688,
            "byteOffset" : 2064
        },
        {
            "buffer" : 0,
            "byteLength" : 264,
            "byteOffset" : 2752
        },
        {
            "buffer" : 0,
            "byteLength" : 144,
            "byteOffset" : 3016
        },
        {
            "buffer" : 0,
            "byteLength" : 144,
            "byteOffset" : 3160
        },
        {
            "buffer" : 0,
            "byteLength" : 96,
            "byteOffset" : 3304
        },
        {
            "buffer" : 0,
            "byteLength" : 36,
            "byteOffset" : 3400
        },
        {
            "buffer" : 0,
            "byteLength" : 96,
            "byteOffset" : 3436
        },
        {
            "buffer" : 0,
            "byteLength" : 96,
            "byteOffset" : 3532
        },
        {
            "buffer" : 0,
            "byteLength" : 64,
            "byteOffset" : 3628
        },
        {
            "buffer" : 0,
            "byteLength" : 24,
            "byteOffset" : 3692
        },
        {
            "buffer" : 0,
            "byteLength" : 60,
            "byteOffset" : 3716
        },
        {
            "buffer" : 0,
            "byteLength" : 60,
            "byteOffset" : 3776
        },
        {
            "buffer" : 0,
            "byteLength" : 40,
            "byteOffset" : 3836
        },
        {
            "buffer" : 0,
            "byteLength" : 18,
            "byteOffset" : 3876
        },
        {
            "buffer" : 0,
            "byteLength" : 3840,
            "byteOffset" : 3896
        },
        {
            "buffer" : 0,
            "byteLength" : 3840,
            "byteOffset" : 7736
        },
        {
            "buffer" : 0,
            "byteLength" : 2560,
            "byteOffset" : 11576
        },
        {
            "buffer" : 0,
            "byteLength" : 1920,
            "byteOffset" : 14136
        },
        {
            "buffer" : 0,
            "byteLength" : 2304,
            "byteOffset" : 16056
        },
        {
            "buffer" : 0,
            "byteLength" : 2304,
            "byteOffset" : 18360
        },
        {
            "buffer" : 0,
            "byteLength" : 1536,
            "byteOffset" : 20664
        },
        {
            "buffer" : 0,
            "byteLength" : 1152,
            "byteOffset" : 22200
        },
        {
            "buffer" : 0,
            "byteLength" : 3840,
            "byteOffset" : 23352
        },
        {
            "buffer" : 0,
            "byteLength" : 3840,
            "byteOffset" : 27192
        },
        {
            "buffer" : 0,
            "byteLength" : 2560,
            "byteOffset" : 31032
        },
        {
            "buffer" : 0,
            "byteLength" : 2304,
            "byteOffset" : 33592
        },
        {
            "buffer" : 0,
            "byteLength" : 2304,
            "byteOffset" : 35896
        },
        {
            "buffer" : 0,
            "byteLength" : 1536,
            "byteOffset" : 38200
        },
        {
            "buffer" : 0,
            "byteLength" : 3840,
            "byteOffset" : 39736
        },
        {
            "buffer" : 0,
            "byteLength" : 3840,
            "byteOffset" : 43576
        },
        {
            "buffer" : 0,
            "byteLength" : 2560,
            "byteOffset" : 47416
        },
        {
            "buffer" : 0,
            "byteLength" : 2304,
            "byteOffset" : 49976
        },
        {
            "buffer" : 0,
            "byteLength" : 2304,
            "byteOffset" : 52280
        },
        {
            "buffer" : 0,
            "byteLength" : 1536,
            "byteOffset" : 54584
        },
        {
            "buffer" : 0,
            "byteLength" : 3840,
            "byteOffset" : 56120
        },
        {
            "buffer" : 0,
            "byteLength" : 3840,
            "byteOffset" : 59960
        },
        {
            "buffer" : 0,
            "byteLength" : 2560,
            "byteOffset" : 63800
        },
        {
            "buffer" : 0,
            "byteLength" : 2304,
            "byteOffset" : 66360
        },
        {
            "buffer" : 0,
            "byteLength" : 2304,
            "byteOffset" : 68664
        },
        {
            "buffer" : 0,
            "byteLength" : 1536,
            "byteOffset" : 70968
        }
    ],
    "buffers" : [
        {
            "byteLength" : 72504,
            "uri" : "data:application/octet-stream;base64,"
        }
    ]
}
