{
    "asset" : {
        "generator" : "Khronos glTF Blender I/O v1.7.33",
        "version" : "2.0"
    },
    "scene" : 0,
    "scenes" : [
        {
            "name" : "Scene",
            "nodes" : [
                0
            ]
        }
    ],
    "nodes" : [
        {
            "mesh" : 0,
            "name" : "Sonar_Wallhung_WC_Rimless_82034",
            "rotation" : [
                0.7071068286895752,
                0,
                0,
                0.7071068286895752
            ]
        }
    ],
    "materials" : [
        {
            "doubleSided" : true,
            "name" : "porzellan.003",
            "pbrMetallicRoughness" : {
                "metallicFactor" : 0,
                "roughnessFactor" : 0
            }
        }
    ],
    "meshes" : [
        {
            "name" : "Sonar_Wallhung_WC_Rimless_82034.001",
            "primitives" : [
                {
                    "attributes" : {
                        "POSITION" : 0,
                        "NORMAL" : 1,
                        "TEXCOORD_0" : 2
                    },
                    "indices" : 3,
                    "material" : 0
                }
            ]
        }
    ],
    "accessors" : [
        {
            "bufferView" : 0,
            "componentType" : 5126,
            "count" : 22689,
            "max" : [
                1.8944532871246338,
                3.10134220123291,
                -0.14614486694335938
            ],
            "min" : [
                -1.8677538633346558,
                -2.316478967666626,
                -4.242664337158203
            ],
            "type" : "VEC3"
        },
        {
            "bufferView" : 1,
            "componentType" : 5126,
            "count" : 22689,
            "type" : "VEC3"
        },
        {
            "bufferView" : 2,
            "componentType" : 5126,
            "count" : 22689,
            "type" : "VEC2"
        },
        {
            "bufferView" : 3,
            "componentType" : 5123,
            "count" : 113868,
            "type" : "SCALAR"
        }
    ],
    "bufferViews" : [
        {
            "buffer" : 0,
            "byteLength" : 272268,
            "byteOffset" : 0
        },
        {
            "buffer" : 0,
            "byteLength" : 272268,
            "byteOffset" : 272268
        },
        {
            "buffer" : 0,
            "byteLength" : 181512,
            "byteOffset" : 544536
        },
        {
            "buffer" : 0,
            "byteLength" : 227736,
            "byteOffset" : 726048
        }
    ],
    "buffers" : [
        {
            "byteLength" : 953784,
            "uri" : "data:application/octet-stream;base64,"
        }
    ]
}
