{
    "asset" : {
        "generator" : "Khronos glTF Blender I/O v1.7.33",
        "version" : "2.0"
    },
    "scene" : 0,
    "scenes" : [
        {
            "name" : "Scene",
            "nodes" : [
                0
            ]
        }
    ],
    "nodes" : [
        {
            "mesh" : 0,
            "name" : "Sonar_Wallhung_WC_Rimless_82034",
            "translation" : [
                0,
                2.3154163360595703,
                0
            ]
        }
    ],
    "materials" : [
        {
            "doubleSided" : true,
            "name" : "porzellan.003",
            "pbrMetallicRoughness" : {
                "metallicFactor" : 0,
                "roughnessFactor" : 0
            }
        }
    ],
    "meshes" : [
        {
            "name" : "Sonar_Wallhung_WC_Rimless_82034.001",
            "primitives" : [
                {
                    "attributes" : {
                        "POSITION" : 0,
                        "NORMAL" : 1,
                        "TEXCOORD_0" : 2
                    },
                    "indices" : 3,
                    "material" : 0
                }
            ]
        }
    ],
    "accessors" : [
        {
            "bufferView" : 0,
            "componentType" : 5126,
            "count" : 22693,
            "max" : [
                1.8944525718688965,
                3.101278781890869,
                3.1761908531188965
            ],
            "min" : [
                -1.867754578590393,
                -2.316542625427246,
                -0.9203283786773682
            ],
            "type" : "VEC3"
        },
        {
            "bufferView" : 1,
            "componentType" : 5126,
            "count" : 22693,
            "type" : "VEC3"
        },
        {
            "bufferView" : 2,
            "componentType" : 5126,
            "count" : 22693,
            "type" : "VEC2"
        },
        {
            "bufferView" : 3,
            "componentType" : 5123,
            "count" : 113868,
            "type" : "SCALAR"
        }
    ],
    "bufferViews" : [
        {
            "buffer" : 0,
            "byteLength" : 272316,
            "byteOffset" : 0
        },
        {
            "buffer" : 0,
            "byteLength" : 272316,
            "byteOffset" : 272316
        },
        {
            "buffer" : 0,
            "byteLength" : 181544,
            "byteOffset" : 544632
        },
        {
            "buffer" : 0,
            "byteLength" : 227736,
            "byteOffset" : 726176
        }
    ],
    "buffers" : [
        {
            "byteLength" : 953912,
            "uri" : "data:application/octet-stream;base64,"
        }
    ]
}
