{
    "asset" : {
        "generator" : "Khronos glTF Blender I/O v1.4.40",
        "version" : "2.0"
    },
    "scene" : 0,
    "scenes" : [
        {
            "name" : "Scene",
            "nodes" : [
                0
            ]
        }
    ],
    "nodes" : [
        {
            "mesh" : 0,
            "name" : "xpoptoy02veined"
        }
    ],
    "materials" : [
        {
            "doubleSided" : true,
            "name" : "Default OBJ",
            "pbrMetallicRoughness" : {
                "baseColorFactor" : [
                    1,
                    0.5601509213447571,
                    0.38654986023902893,
                    1
                ],
                "metallicFactor" : 0,
                "roughnessFactor" : 0.5
            }
        }
    ],
    "meshes" : [
        {
            "name" : "xpoptoy02veined",
            "primitives" : [
                {
                    "attributes" : {
                        "POSITION" : 0,
                        "NORMAL" : 1
                    },
                    "indices" : 2,
                    "material" : 0
                }
            ]
        }
    ],
    "accessors" : [
        {
            "bufferView" : 0,
            "componentType" : 5126,
            "count" : 52712,
            "max" : [
                0.32591512799263,
                1.4946826696395874,
                0.49227818846702576
            ],
            "min" : [
                -0.32371214032173157,
                0.000401846831664443,
                -0.21662309765815735
            ],
            "type" : "VEC3"
        },
        {
            "bufferView" : 1,
            "componentType" : 5126,
            "count" : 52712,
            "type" : "VEC3"
        },
        {
            "bufferView" : 2,
            "componentType" : 5123,
            "count" : 305592,
            "type" : "SCALAR"
        }
    ],
    "bufferViews" : [
        {
            "buffer" : 0,
            "byteLength" : 632544,
            "byteOffset" : 0
        },
        {
            "buffer" : 0,
            "byteLength" : 632544,
            "byteOffset" : 632544
        },
        {
            "buffer" : 0,
            "byteLength" : 611184,
            "byteOffset" : 1265088
        }
    ],
    "buffers" : [
        {
            "byteLength" : 1876272,
            "uri" : "data:application/octet-stream;base64,"
        }
    ]
}
