{
    "asset" : {
        "generator" : "Khronos glTF Blender I/O v1.4.40",
        "version" : "2.0"
    },
    "scene" : 0,
    "scenes" : [
        {
            "name" : "Scene",
            "nodes" : [
                0
            ]
        }
    ],
    "nodes" : [
        {
            "mesh" : 0,
            "name" : "xpoptoy02veined",
            "scale" : [
                0.010000004433095455,
                0.010000004433095455,
                0.010000004433095455
            ]
        }
    ],
    "materials" : [
        {
            "doubleSided" : true,
            "name" : "Default OBJ",
            "pbrMetallicRoughness" : {
                "baseColorFactor" : [
                    1,
                    0.5601509213447571,
                    0.38654986023902893,
                    1
                ],
                "metallicFactor" : 0,
                "roughnessFactor" : 0.5
            }
        }
    ],
    "meshes" : [
        {
            "name" : "xpoptoy02veined",
            "primitives" : [
                {
                    "attributes" : {
                        "POSITION" : 0,
                        "NORMAL" : 1
                    },
                    "indices" : 2,
                    "material" : 0
                }
            ]
        }
    ],
    "accessors" : [
        {
            "bufferView" : 0,
            "componentType" : 5126,
            "count" : 52722,
            "max" : [
                32.59149932861328,
                149.46820068359375,
                49.22779846191406
            ],
            "min" : [
                -32.37120056152344,
                0.04018770530819893,
                -21.66230010986328
            ],
            "type" : "VEC3"
        },
        {
            "bufferView" : 1,
            "componentType" : 5126,
            "count" : 52722,
            "type" : "VEC3"
        },
        {
            "bufferView" : 2,
            "componentType" : 5123,
            "count" : 305592,
            "type" : "SCALAR"
        }
    ],
    "bufferViews" : [
        {
            "buffer" : 0,
            "byteLength" : 632664,
            "byteOffset" : 0
        },
        {
            "buffer" : 0,
            "byteLength" : 632664,
            "byteOffset" : 632664
        },
        {
            "buffer" : 0,
            "byteLength" : 611184,
            "byteOffset" : 1265328
        }
    ],
    "buffers" : [
        {
            "byteLength" : 1876512,
            "uri" : "data:application/octet-stream;base64,"
        }
    ]
}
