<?xml version="1.0" encoding="UTF-8" standalone="no"?>
<!DOCTYPE svg PUBLIC "-//W3C//DTD SVG 1.1//EN" "http://www.w3.org/Graphics/SVG/1.1/DTD/svg11.dtd">
<svg width="100%" height="100%" viewBox="0 0 137 137" version="1.1" xmlns="http://www.w3.org/2000/svg" xmlns:xlink="http://www.w3.org/1999/xlink" xml:space="preserve" xmlns:serif="http://www.serif.com/" style="fill-rule:evenodd;clip-rule:evenodd;stroke-linecap:round;stroke-linejoin:round;">
    <g transform="matrix(1,0,0,1,-1965,0)">
        <g id="ArtBoard2" transform="matrix(1,0,0,1,-0.0789334,198.918)">
            <rect x="1965.08" y="-198.918" width="136.201" height="136.201" style="fill:none;"/>
            <g id="printer.svg" transform="matrix(5.74818,0,0,5.74818,2034.11,-130.605)">
                <g transform="matrix(1,0,0,1,-12,-12)">
                    <path d="M6,9L6,2L18,2L18,9" style="fill:none;fill-rule:nonzero;stroke:rgb(115,115,115);stroke-width:2px;"/>
                    <path d="M6,18L4,18C2.903,18 2,17.097 2,16L2,11C2,9.903 2.903,9 4,9L20,9C21.097,9 22,9.903 22,11L22,16C22,17.097 21.097,18 20,18L18,18" style="fill:none;fill-rule:nonzero;stroke:rgb(115,115,115);stroke-width:2px;"/>
                    <rect x="6" y="14" width="12" height="8" style="fill:none;stroke:rgb(115,115,115);stroke-width:2px;"/>
                </g>
            </g>
        </g>
    </g>
</svg>
